<svg xmlns="http://www.w3.org/2000/svg" version="1.1" x="0" y="0" width="199px" height="45px" viewBox="94.5 28 199 45" enable-background="new 94.5 28 199 44" xml:space="preserve"><rect x="195.78" y="30" fill="#f00" width="3.638" height="40"/><polygon fill="#f00" points="245.854,30 257.463,30 257.463,33.331 253.521,33.331 253.521,70 249.86,70 249.86,33.331    245.854,33.331  "/><polygon fill="#f00" points="192.466,30 192.466,70 188.656,70 183.206,45.703 183.206,70 179.632,70 179.632,30 182.92,30    188.892,56.494 188.892,30  "/><polygon fill="#f00" points="113.407,30 113.407,70 109.831,70 109.831,35.713 105.418,70 102.442,70 98.1,35.713 98.1,70    94.5,70 94.5,30 100.589,30 104.076,54.111 107.364,30  "/><path fill="#f00" d="M157.676 69.983c2.83-3.835 4.5-8.576 4.5-13.708 0-12.779-10.357-23.136-23.134-23.136 -12.776 0-23.133 10.359-23.133 23.136 0 5.13 1.67 9.873 4.494 13.708h4.811c-3.492-3.521-5.65-8.359-5.65-13.708 0-10.76 8.723-19.483 19.48-19.483 10.759 0 19.483 8.725 19.483 19.483 0 5.345-2.156 10.189-5.641 13.708H157.676z"/><path fill="#f00" d="M270.631 70h-3.557l-0.941-9.012h-5.323L259.942 70h-3.63l4.104-40h5.548L270.631 70zM265.801 57.377l-2.42-22.057 -2.232 22.057H265.801z"/><path fill="#f00" d="M227.183 64.971c0 1.799-1.061 2.72-2.272 2.72s-2.271-0.921-2.271-2.72V34.783c0-1.801 1.059-2.723 2.271-2.723s2.272 0.923 2.272 2.723l-0.007 1.443v7.535h3.655v-5.808l-0.011-1.679c-0.024-4.98-1.973-7.354-6.037-7.354 -3.621 0-5.976 2.569-5.976 6.509l0.004 1.468v25.016l-0.004 1.62c0 5.122 1.986 7.62 6.061 7.62 4.066 0 5.963-2.455 5.963-7.727V48.887h-6.715v3.5h3.061v11.259L227.183 64.971z"/><path fill="#f00" d="M242.17 64.016V53.619l-8.333-6.22V35.784c0-4.565 2.058-6.9 6.08-6.9 4.086 0 5.94 2.319 5.972 7.449l0.007 1.594v5.892h-3.724v-7.904l-0.011-1.133c0-1.802-1.05-2.723-2.249-2.723 -1.198 0-2.249 0.923-2.249 2.723v1.169 9.713l8.23 6.216v12.018c0 4.702-2.091 7.219-6.003 7.219 -3.957 0-6.019-2.375-6.044-6.959l-0.012-1.583v-7.822h3.823v9.163 1.058c0 1.798 1.053 2.72 2.25 2.72 1.201 0 2.251-0.922 2.251-2.72L242.17 64.016z"/><path fill="#f00" d="M177.433 69.998h-3.649c-0.497-1.346-0.716-2.613-0.741-4.303l-0.027-2.047L173 62.613v-7.811c0-1.637-0.996-2.383-2.149-2.383h-2.596V70h-3.572V30h4.657c5.233 0 7.25 1.913 7.25 7.03v7.508c0 3.368-0.562 4.777-3.199 5.749 0.038 0.014 0.074 0.025 0.108 0.039 2.489 0.723 3.047 1.668 3.076 4.826l0.013 1.447v7.305C176.591 66.566 176.788 68.008 177.433 69.998zM168.254 33.147v15.841h1.284c2.356 0 3.463-1.082 3.463-3.378v-8.151c0-3.286-0.762-4.313-3.193-4.313L168.254 33.147 168.254 33.147zM284.317 69.998h-3.65c-0.497-1.346-0.715-2.613-0.736-4.303l-0.031-2.047 -0.013-1.035v-7.811c0-1.637-0.998-2.383-2.149-2.383h-2.597V70h-3.574V30h4.661c5.232 0 7.245 1.913 7.245 7.03v7.508c0 3.368-0.562 4.777-3.196 5.749 0.037 0.014 0.073 0.025 0.109 0.039 2.488 0.723 3.047 1.668 3.075 4.826l0.012 1.447v7.305C283.475 66.566 283.672 68.008 284.317 69.998zM275.139 33.147v15.841h1.282c2.359 0 3.466-1.082 3.466-3.378v-8.151c0-3.286-0.76-4.313-3.194-4.313L275.139 33.147 275.139 33.147z"/><polygon fill="#f00" points="215.521,30 215.521,70 211.711,70 206.259,45.703 206.259,70 202.686,70 202.686,30 205.972,30    211.946,56.494 211.946,30  "/><path fill="#f00" d="M285.64 33.43c0 1.985 1.611 3.599 3.596 3.599 1.986 0 3.601-1.613 3.601-3.599s-1.615-3.6-3.601-3.6C287.252 29.83 285.64 31.444 285.64 33.43zM286.007 33.43c0-1.781 1.451-3.231 3.229-3.231 1.785 0 3.233 1.451 3.233 3.231 0 1.782-1.448 3.23-3.233 3.23C287.458 36.658 286.007 35.211 286.007 33.43zM287.98 31.673h1.605c0.559 0 1.142 0.215 1.142 1.022 0 0.455-0.205 0.892-0.823 0.994l0.978 1.536h-0.569l-0.959-1.507h-0.906v1.507h-0.467V31.673L287.98 31.673zM288.448 33.309h1.062c0.438 0 0.752-0.141 0.752-0.614 0-0.469-0.312-0.613-0.752-0.613h-1.062V33.309z"/></svg>