<svg id="Layer_1" data-name="Layer 1" xmlns="http://www.w3.org/2000/svg" viewBox="0 0 928 926.67"><defs><style>.cls-1{fill:#83d2e6;}.cls-2{fill:#8969ae;}.cls-3{fill:#ec5958;}.cls-4{fill:#b35ca4;}.cls-5{fill:#69bae8;}.cls-6{fill:#efe564;}.cls-7{fill:#8bcfb7;}.cls-8{fill:#f06498;}.cls-9{fill:#efa02e;}.cls-10{fill:#b357a1;}</style></defs><title>uncommon</title><rect class="cls-1" x="147.47" y="-0.68" width="145.03" height="386.03"/><rect class="cls-2" x="2.13" y="58.38" width="145.34" height="618.6"/><rect class="cls-3" x="147.47" y="799.21" width="486.59" height="127.45"/><rect class="cls-4" x="634.06" y="0.32" width="145.35" height="323.29"/><rect class="cls-5" x="779.41" y="58.38" width="145.34" height="336.17"/><rect class="cls-6" x="292.81" y="649.96" width="341.24" height="149.25"/><rect class="cls-7" x="815.74" y="394.55" width="36.34" height="35.26"/><rect class="cls-7" x="888.41" y="394.55" width="36.34" height="35.26"/><rect class="cls-7" x="779.41" y="429.81" width="36.33" height="35.25"/><rect class="cls-7" x="852.08" y="429.81" width="36.34" height="35.25"/><rect class="cls-7" x="815.74" y="465.06" width="36.34" height="35.26"/><rect class="cls-7" x="888.41" y="465.06" width="36.34" height="35.26"/><rect class="cls-7" x="779.41" y="500.32" width="36.33" height="35.26"/><rect class="cls-7" x="852.08" y="500.32" width="36.34" height="35.26"/><rect class="cls-7" x="815.74" y="535.58" width="36.34" height="35.26"/><rect class="cls-7" x="888.41" y="535.58" width="36.34" height="35.26"/><rect class="cls-7" x="779.41" y="570.83" width="36.33" height="35.26"/><rect class="cls-7" x="852.08" y="570.83" width="36.34" height="35.26"/><rect class="cls-7" x="815.74" y="606.1" width="36.34" height="35.25"/><rect class="cls-7" x="888.41" y="606.1" width="36.34" height="35.25"/><rect class="cls-7" x="779.41" y="641.34" width="36.33" height="35.26"/><rect class="cls-7" x="852.08" y="641.34" width="36.34" height="35.26"/><rect class="cls-7" x="815.74" y="676.61" width="36.34" height="35.26"/><rect class="cls-7" x="888.41" y="676.61" width="36.34" height="35.26"/><rect class="cls-7" x="779.41" y="711.86" width="36.33" height="35.26"/><rect class="cls-7" x="852.08" y="711.86" width="36.34" height="35.26"/><rect class="cls-7" x="815.74" y="747.12" width="36.34" height="35.26"/><rect class="cls-7" x="888.41" y="747.12" width="36.34" height="35.26"/><rect class="cls-7" x="779.41" y="782.38" width="36.33" height="35.26"/><rect class="cls-7" x="852.08" y="782.38" width="36.34" height="35.26"/><rect class="cls-8" x="183.73" y="385.35" width="36.26" height="37.19"/><rect class="cls-8" x="256.24" y="385.35" width="36.27" height="37.19"/><rect class="cls-8" x="147.47" y="422.53" width="36.26" height="38"/><rect class="cls-8" x="219.98" y="422.53" width="36.26" height="38"/><rect class="cls-8" x="183.73" y="460.53" width="36.26" height="38"/><rect class="cls-8" x="256.24" y="460.53" width="36.27" height="38"/><rect class="cls-8" x="147.47" y="498.53" width="36.26" height="38"/><rect class="cls-8" x="219.98" y="498.53" width="36.26" height="38"/><rect class="cls-8" x="183.73" y="536.53" width="36.26" height="38"/><rect class="cls-8" x="256.24" y="536.53" width="36.27" height="38"/><rect class="cls-8" x="147.47" y="574.53" width="36.26" height="38"/><rect class="cls-8" x="219.98" y="574.53" width="36.26" height="38"/><rect class="cls-8" x="147.47" y="612.53" width="36.26" height="186.69"/><rect class="cls-8" x="183.73" y="612.53" width="36.26" height="186.69"/><rect class="cls-8" x="256.24" y="612.53" width="36.27" height="38"/><rect class="cls-8" x="147.47" y="650.52" width="36.26" height="38"/><rect class="cls-8" x="183.73" y="650.52" width="36.26" height="38"/><rect class="cls-8" x="219.98" y="650.52" width="36.26" height="148.69"/><rect class="cls-8" x="147.47" y="688.52" width="36.26" height="38.01"/><rect class="cls-8" x="183.73" y="688.52" width="36.26" height="38.01"/><rect class="cls-8" x="219.98" y="688.52" width="36.26" height="38.01"/><rect class="cls-8" x="256.24" y="688.52" width="36.27" height="110.69"/><rect class="cls-8" x="147.47" y="726.53" width="36.26" height="37.99"/><rect class="cls-8" x="183.73" y="726.53" width="36.26" height="37.99"/><rect class="cls-8" x="219.98" y="726.53" width="36.26" height="37.99"/><rect class="cls-8" x="256.24" y="726.53" width="36.27" height="37.99"/><rect class="cls-8" x="147.47" y="688.52" width="145.03" height="110.69"/><rect class="cls-9" x="670.39" y="323.6" width="36.34" height="376.78"/><rect class="cls-9" x="706.73" y="323.6" width="36.34" height="345.92"/><rect class="cls-9" x="743.08" y="323.6" width="36.33" height="307.92"/><rect class="cls-9" x="670.39" y="359.08" width="36.34" height="35.48"/><rect class="cls-9" x="706.73" y="359.08" width="36.34" height="35.48"/><rect class="cls-9" x="743.08" y="359.08" width="36.33" height="35.48"/><rect class="cls-9" x="634.06" y="323.6" width="145.35" height="317.74"/><rect class="cls-9" x="670.39" y="394.55" width="36.34" height="35.48"/><rect class="cls-9" x="706.73" y="394.55" width="36.34" height="35.48"/><rect class="cls-9" x="743.08" y="394.55" width="36.33" height="35.48"/><rect class="cls-9" x="634.06" y="430.03" width="36.34" height="35.48"/><rect class="cls-9" x="670.39" y="430.03" width="36.34" height="35.48"/><rect class="cls-9" x="706.73" y="430.03" width="36.34" height="35.48"/><rect class="cls-9" x="743.08" y="430.03" width="36.33" height="35.48"/><rect class="cls-9" x="634.06" y="465.5" width="36.34" height="35.48"/><rect class="cls-9" x="670.39" y="465.5" width="36.34" height="35.48"/><rect class="cls-9" x="706.73" y="465.5" width="36.34" height="35.48"/><rect class="cls-9" x="743.08" y="465.5" width="36.33" height="35.48"/><rect class="cls-9" x="634.06" y="500.98" width="36.34" height="35.48"/><rect class="cls-9" x="670.39" y="500.98" width="36.34" height="35.48"/><rect class="cls-9" x="706.73" y="500.98" width="36.34" height="35.48"/><rect class="cls-9" x="743.08" y="500.98" width="36.33" height="35.48"/><rect class="cls-9" x="634.06" y="536.45" width="36.34" height="35.47"/><rect class="cls-9" x="670.39" y="536.45" width="36.34" height="35.47"/><rect class="cls-9" x="706.73" y="536.45" width="36.34" height="35.47"/><rect class="cls-9" x="743.08" y="536.45" width="36.33" height="35.47"/><rect class="cls-9" x="634.06" y="571.93" width="36.34" height="35.47"/><rect class="cls-9" x="670.39" y="571.93" width="36.34" height="35.47"/><rect class="cls-9" x="706.73" y="571.93" width="36.34" height="35.47"/><rect class="cls-9" x="743.08" y="571.93" width="36.33" height="35.47"/><rect class="cls-9" x="634.06" y="607.4" width="36.34" height="35.48"/><rect class="cls-9" x="670.39" y="607.4" width="36.34" height="35.48"/><rect class="cls-9" x="706.73" y="607.4" width="36.34" height="35.48"/><rect class="cls-9" x="743.08" y="607.4" width="36.33" height="35.48"/><rect class="cls-9" x="634.06" y="642.87" width="36.34" height="35.47"/><rect class="cls-9" x="670.39" y="642.87" width="36.34" height="35.47"/><rect class="cls-9" x="706.73" y="642.87" width="36.34" height="35.47"/><rect class="cls-9" x="634.06" y="678.34" width="36.34" height="35.48"/><rect class="cls-9" x="670.39" y="678.34" width="36.34" height="35.48"/><rect class="cls-9" x="743.08" y="678.34" width="36.33" height="35.48"/><rect class="cls-9" x="634.06" y="713.82" width="36.34" height="35.48"/><rect class="cls-9" x="706.73" y="713.82" width="36.34" height="35.48"/><rect class="cls-9" x="670.39" y="749.29" width="36.34" height="35.47"/><rect class="cls-9" x="743.08" y="749.29" width="36.33" height="35.47"/><rect class="cls-9" x="634.06" y="784.77" width="36.34" height="35.48"/><rect class="cls-9" x="706.73" y="784.77" width="36.34" height="35.48"/><rect class="cls-9" x="670.39" y="820.24" width="36.34" height="35.47"/><rect class="cls-9" x="743.08" y="820.24" width="36.33" height="35.47"/><rect class="cls-9" x="634.06" y="855.72" width="36.34" height="35.48"/><rect class="cls-9" x="706.73" y="855.72" width="36.34" height="35.48"/><rect class="cls-9" x="670.39" y="891.19" width="36.34" height="35.48"/><rect class="cls-9" x="743.08" y="891.19" width="36.33" height="35.48"/><rect class="cls-10" x="74.8" y="676.25" width="36.33" height="36.53"/><rect class="cls-10" x="2.13" y="676.25" width="145.34" height="146.1"/><rect class="cls-10" x="111.13" y="712.77" width="36.34" height="36.52"/><rect class="cls-10" x="38.46" y="712.77" width="36.34" height="36.52"/><rect class="cls-10" x="74.8" y="749.29" width="36.33" height="36.53"/><rect class="cls-10" x="2.13" y="749.29" width="36.34" height="36.53"/><rect class="cls-10" x="111.13" y="785.83" width="36.34" height="36.52"/><rect class="cls-10" x="38.46" y="785.83" width="36.34" height="36.52"/></svg>